<svg width="60" height="60" viewBox="0 0 60 60" fill="none" xmlns="http://www.w3.org/2000/svg">
<circle cx="30" cy="30" r="30" fill="black"/>
<path d="M37.9785 28.8439C37.945 25.0235 41.0952 23.197 41.2292 23.1133C39.4531 20.5161 36.7051 20.1642 35.7164 20.1139C33.3706 19.8793 31.1253 21.5047 29.9356 21.5047C28.7459 21.5047 26.9027 20.1642 24.959 20.1977C22.3953 20.2312 20.0327 21.689 18.709 23.9678C16.0447 28.5758 18.022 35.429 20.6192 39.1657C21.8926 40.9921 23.4007 43.0531 25.3779 42.9861C27.2881 42.919 28.0086 41.7461 30.321 41.7461C32.6333 41.7461 33.2868 42.9861 35.2975 42.9525C37.3585 42.9023 38.6488 41.0759 39.9055 39.2494C41.3633 37.1214 41.9665 35.0604 42 34.9599C41.9497 34.9599 37.9953 33.4183 37.945 28.8606L37.9785 28.8439Z" fill="white"/>
<path d="M34.1749 17.634C35.2305 16.3605 35.9343 14.5843 35.7499 12.825C34.2419 12.8752 32.3987 13.8303 31.3096 15.1038C30.3377 16.2432 29.4664 18.0529 29.701 19.7788C31.3933 19.9128 33.1192 18.9242 34.1749 17.634Z" fill="white"/>
</svg>
