<svg width="60" height="60" viewBox="0 0 60 60" fill="none" xmlns="http://www.w3.org/2000/svg">
<circle cx="30" cy="30" r="29.5" fill="white" stroke="#DFE2E6"/>
<path fill-rule="evenodd" clip-rule="evenodd" d="M30.6499 19.438C33.7764 19.438 35.8854 20.7885 37.0879 21.917L41.7869 17.329C38.9009 14.6465 35.1454 13 30.6499 13C24.1379 13 18.5139 16.737 15.7759 22.176L21.1594 26.357C22.5099 22.3425 26.2469 19.438 30.6499 19.438Z" fill="#EA4335"/>
<path fill-rule="evenodd" clip-rule="evenodd" d="M46.6339 30.0202C46.6339 28.6512 46.5229 27.6522 46.2824 26.6162H30.6499V32.7952H39.8259C39.6409 34.3307 38.6419 36.6432 36.4219 38.1972L41.6759 42.2672C44.8209 39.3627 46.6339 35.0892 46.6339 30.0202Z" fill="#4285F4"/>
<path fill-rule="evenodd" clip-rule="evenodd" d="M21.178 32.943C20.8265 31.907 20.623 30.797 20.623 29.65C20.623 28.503 20.8265 27.393 21.1595 26.357L15.776 22.176C14.6475 24.433 14 26.9675 14 29.65C14 32.3325 14.6475 34.867 15.776 37.124L21.178 32.943Z" fill="#FBBC05"/>
<path fill-rule="evenodd" clip-rule="evenodd" d="M30.6499 46.3001C35.1454 46.3001 38.9194 44.8201 41.6759 42.2671L36.4219 38.1971C35.0159 39.1776 33.1289 39.8621 30.6499 39.8621C26.2469 39.8621 22.5099 36.9576 21.1779 32.9431L15.7944 37.1241C18.5324 42.5631 24.1379 46.3001 30.6499 46.3001Z" fill="#34A853"/>
</svg>
