<svg width="202" height="77" viewBox="0 0 202 77" fill="none" xmlns="http://www.w3.org/2000/svg">
<g id="shape">
<path id="Vector" d="M24.6782 49.3287C19.8071 49.3287 15.0453 47.8985 10.9951 45.2191C6.94494 42.5396 3.7882 38.7312 1.9241 34.2754C0.0599957 29.8196 -0.427749 24.9166 0.522562 20.1864C1.47287 15.4561 3.81857 11.1111 7.26298 7.70083C10.7074 4.29053 15.0958 1.96806 19.8734 1.02715C24.6509 0.0862516 29.6029 0.569167 34.1033 2.41481C38.6036 4.26046 42.4501 7.38594 45.1564 11.396C47.8626 15.4061 49.3071 20.1207 49.3071 24.9436C49.3071 26.4951 48.6846 27.983 47.5766 29.08C46.4686 30.1771 44.9658 30.7934 43.3989 30.7934C41.8319 30.7934 40.3292 30.1771 39.2212 29.08C38.1131 27.983 37.4906 26.4951 37.4906 24.9436C37.4906 22.4347 36.7392 19.982 35.3314 17.8959C33.9235 15.8098 31.9225 14.1839 29.5813 13.2237C27.2402 12.2636 24.664 12.0124 22.1786 12.5018C19.6933 12.9913 17.4103 14.1995 15.6185 15.9736C13.8266 17.7477 12.6064 20.0081 12.112 22.4688C11.6176 24.9296 11.8714 27.4802 12.8411 29.7982C13.8108 32.1162 15.453 34.0974 17.56 35.4913C19.667 36.8852 22.1442 37.6292 24.6782 37.6292C26.2452 37.6292 27.748 38.2455 28.856 39.3426C29.964 40.4396 30.5865 41.9275 30.5865 43.4789C30.5865 45.0304 29.964 46.5183 28.856 47.6153C27.748 48.7124 26.2452 49.3287 24.6782 49.3287Z" fill="#212529"/>
<path id="Vector_2" d="M24.6795 76.2867C18.1489 76.2956 11.8817 73.7378 7.25434 69.1751C2.627 64.6124 0.017886 58.4178 0 51.9518C0 50.4004 0.622455 48.9125 1.73046 47.8155C2.83847 46.7184 4.34127 46.1021 5.90823 46.1021C7.47519 46.1021 8.97799 46.7184 10.086 47.8155C11.194 48.9125 11.8165 50.4004 11.8165 51.9518C11.8165 55.3163 13.1663 58.5429 15.5691 60.9219C17.9719 63.3009 21.2308 64.6374 24.6289 64.6374C28.0269 64.6374 31.2858 63.3009 33.6886 60.9219C36.0914 58.5429 37.4413 55.3163 37.4413 51.9518C37.4413 50.4004 38.0638 48.9125 39.1718 47.8155C40.2798 46.7184 41.7826 46.1021 43.3495 46.1021C44.9165 46.1021 46.4193 46.7184 47.5273 47.8155C48.6353 48.9125 49.2578 50.4004 49.2578 51.9518C49.2355 58.3991 46.6389 64.576 42.0344 69.1349C37.4299 73.6938 31.1912 76.2647 24.6795 76.2867Z" fill="#212529"/>
<path id="Vector_3" d="M64.772 76.288C63.2934 76.3703 61.8419 75.8698 60.7349 74.8958C59.6278 73.9218 58.9551 72.5536 58.8638 71.0901V5.75692C59.0199 4.31329 59.7096 2.9778 60.8003 2.00734C61.891 1.03689 63.3056 0.5 64.772 0.5C66.2384 0.5 67.653 1.03689 68.7437 2.00734C69.8344 2.9778 70.5241 4.31329 70.6802 5.75692V71.1402C70.5761 72.5948 69.8979 73.9503 68.7923 74.9137C67.6866 75.877 66.2424 76.3707 64.772 76.288Z" fill="#212529"/>
<path id="Vector_4" d="M123.584 20.0963C122.017 20.0963 120.514 20.7125 119.406 21.8096C118.298 22.9066 117.676 24.3945 117.676 25.946V51.9522C117.676 55.3167 116.326 58.5433 113.923 60.9223C111.52 63.3013 108.261 64.6378 104.863 64.6378C101.465 64.6378 98.2063 63.3013 95.8035 60.9223C93.4007 58.5433 92.0508 55.3167 92.0508 51.9522V25.946C92.0508 24.3945 91.4284 22.9066 90.3204 21.8096C89.2124 20.7125 87.7096 20.0963 86.1426 20.0963C84.5756 20.0963 83.0728 20.7125 81.9648 21.8096C80.8568 22.9066 80.2344 24.3945 80.2344 25.946V51.9522C80.2522 58.4095 82.8544 64.5965 87.4708 69.1578C92.0872 73.7191 98.3414 76.2827 104.863 76.2871C109.538 76.2912 114.115 74.9624 118.047 72.4597C118.53 73.7436 119.452 74.8189 120.654 75.4983C121.856 76.1777 123.26 76.418 124.622 76.1773C125.984 75.9366 127.218 75.2302 128.108 74.1813C128.998 73.1323 129.488 71.8074 129.492 70.4374V25.946C129.492 24.3945 128.87 22.9066 127.762 21.8096C126.654 20.7125 125.151 20.0963 123.584 20.0963Z" fill="#212529"/>
<path id="Vector_5" d="M188.612 20.6635C187.194 19.9988 185.568 19.9177 184.091 20.4377C182.613 20.9578 181.404 22.0367 180.728 23.438L164.658 56.865L148.571 23.438C148.255 22.7176 147.797 22.0674 147.222 21.5262C146.648 20.985 145.969 20.5638 145.227 20.2877C144.485 20.0116 143.694 19.8863 142.902 19.9192C142.11 19.9521 141.332 20.1426 140.616 20.4792C139.9 20.8159 139.259 21.2918 138.732 21.8788C138.206 22.4657 137.804 23.1516 137.551 23.8956C137.297 24.6395 137.198 25.4264 137.258 26.2092C137.319 26.992 137.538 27.7547 137.902 28.452L159.324 72.9434L159.492 73.2275L159.644 73.5117C159.805 73.7648 159.986 74.0051 160.185 74.2304V74.3306C160.417 74.5807 160.671 74.81 160.944 75.0159C161.013 75.0717 161.087 75.122 161.164 75.1663C161.402 75.3442 161.657 75.5008 161.923 75.6343H162.041C162.388 75.797 162.75 75.9258 163.122 76.0187H163.392C163.759 76.0916 164.132 76.1308 164.506 76.1357C164.88 76.1298 165.253 76.0907 165.62 76.0187H165.873C166.251 75.9258 166.618 75.7971 166.971 75.6343H167.089C167.361 75.5006 167.62 75.344 167.865 75.1663L168.068 75.0159C168.35 74.8145 168.61 74.5848 168.844 74.3306V74.2304C169.043 74.009 169.218 73.7682 169.368 73.5117L169.536 73.2275L169.705 72.9434L191.11 28.4019C191.783 27.0421 191.898 25.4774 191.433 24.0352C190.967 22.593 189.956 21.3848 188.612 20.6635Z" fill="#212529"/>
<path id="Vector_6" d="M195.444 12.258C198.707 12.258 201.352 9.63899 201.352 6.40827C201.352 3.17755 198.707 0.558533 195.444 0.558533C192.181 0.558533 189.536 3.17755 189.536 6.40827C189.536 9.63899 192.181 12.258 195.444 12.258Z" fill="#6C47FF"/>
</g>
</svg>
